<svg width="500" height="500" viewBox="0 0 500 500" fill="none" xmlns="http://www.w3.org/2000/svg">
<g clip-path="url(#clip0_8_38301)">
<path d="M500 250.221C500 388.113 388.217 499.896 250.325 499.896C112.433 499.896 0.64917 388.113 0.64917 250.221C0.64917 112.329 112.433 0.545349 250.325 0.545349C388.217 0.545349 500 112.329 500 250.221Z" fill="black"/>
<circle cx="250" cy="250" r="222" fill="black"/>
<path d="M479.752 255.645H493.048V253.485H494.8V259.893H493.048V257.733H479.752V259.893H478V253.485H479.752V255.645Z" fill="white"/>
<path d="M477.42 267.611L479.816 267.731L479.696 270.128L477.299 270.007L474.018 268.353L474.112 266.483L477.42 267.611Z" fill="white"/>
<path d="M478.656 290.025C477.29 289.855 476.361 289.418 475.868 288.712C475.373 288.022 475.215 286.954 475.394 285.509L476.003 280.603L492.675 282.669L492.102 287.29C491.925 288.719 491.498 289.762 490.82 290.42C490.157 291.079 489.167 291.328 487.849 291.164L478.656 290.025ZM488.321 289.119C488.845 289.184 489.277 289.076 489.618 288.796C489.975 288.518 490.186 288.116 490.251 287.592L490.632 284.52L477.532 282.896L477.154 285.945C477.079 286.548 477.159 287.01 477.394 287.329C477.644 287.65 478.071 287.848 478.674 287.923L488.321 289.119Z" fill="white"/>
<path d="M489.109 303.974L487.384 303.665L488.428 297.83L483.018 296.862L482.079 302.107L480.355 301.798L481.293 296.554L475.339 295.489L474.296 301.324L472.571 301.016L473.982 293.125L490.52 296.083L489.109 303.974Z" fill="white"/>
<path d="M470.473 308.901C470.791 307.546 471.363 306.579 472.189 306C473.026 305.441 474.107 305.316 475.431 305.627L483.843 307.6C485.167 307.911 486.072 308.501 486.558 309.371C487.056 310.261 487.146 311.383 486.829 312.738L486.056 316.033L484.28 315.616L485.108 312.088C485.243 311.512 485.181 311.004 484.922 310.565C484.664 310.127 484.293 309.851 483.81 309.737L474.511 307.556C474.028 307.442 473.573 307.525 473.146 307.803C472.719 308.08 472.438 308.508 472.303 309.084L471.766 311.374L476.836 312.563L477.313 310.53L479.066 310.942L478.134 314.914L469.535 312.897L470.473 308.901Z" fill="white"/>
<path d="M482.126 328.84L480.444 328.35L482.102 322.659L476.826 321.121L475.335 326.236L473.653 325.746L475.144 320.631L469.337 318.939L467.679 324.63L465.997 324.14L468.24 316.444L484.369 321.145L482.126 328.84Z" fill="white"/>
<path d="M464.226 328.517L464.861 326.68L480.74 332.166L479.627 335.387L464.188 334.065L478.389 338.971L477.754 340.808L461.875 335.322L462.996 332.078L478.426 333.423L464.226 328.517Z" fill="white"/>
<path d="M461.708 360.261C460.532 359.717 459.805 359.001 459.528 358.115C459.265 357.235 459.416 356.185 459.981 354.966L461.03 352.701L455.106 349.958L455.984 348.063L471.228 355.123L469.322 359.239C468.751 360.473 468.045 361.274 467.204 361.643C466.371 362.033 465.366 361.956 464.19 361.411L461.708 360.261ZM465.264 359.607C465.815 359.863 466.275 359.917 466.643 359.77C467.004 359.637 467.312 359.295 467.568 358.744L468.718 356.261L462.663 353.457L461.514 355.94C461.258 356.492 461.197 356.948 461.329 357.309C461.469 357.692 461.816 358.01 462.367 358.266L465.264 359.607Z" fill="white"/>
<path d="M449.723 368.95C448.522 368.311 447.795 367.498 447.541 366.511C447.294 365.545 447.498 364.448 448.152 363.219L448.603 362.372C449.257 361.143 450.058 360.355 451.004 360.007C451.958 359.681 453.034 359.837 454.235 360.477L461.861 364.538C463.061 365.177 463.785 365.979 464.032 366.945C464.286 367.932 464.086 369.04 463.432 370.268L462.98 371.116C462.326 372.344 461.522 373.122 460.569 373.448C459.623 373.796 458.549 373.65 457.349 373.011L449.723 368.95ZM458.733 371.383C459.17 371.616 459.631 371.653 460.115 371.493C460.598 371.334 460.979 370.993 461.258 370.47L461.934 369.199C462.213 368.677 462.283 368.17 462.145 367.68C462.008 367.19 461.72 366.828 461.282 366.595L452.851 362.105C452.413 361.872 451.952 361.835 451.469 361.995C450.985 362.154 450.604 362.495 450.326 363.018L449.649 364.289C449.371 364.811 449.3 365.318 449.438 365.808C449.576 366.298 449.864 366.66 450.301 366.893L458.733 371.383Z" fill="white"/>
<path d="M443.197 378.72C442.018 378.011 441.346 377.235 441.182 376.389C441.009 375.558 441.298 374.518 442.048 373.27L444.593 369.032L458.995 377.683L456.597 381.674C455.856 382.908 455.042 383.689 454.155 384.015C453.283 384.349 452.277 384.174 451.139 383.49L443.197 378.72ZM452.399 381.812C452.852 382.084 453.291 382.161 453.716 382.043C454.155 381.933 454.51 381.652 454.782 381.2L456.377 378.546L445.061 371.749L443.479 374.382C443.166 374.903 443.052 375.357 443.137 375.744C443.236 376.139 443.546 376.493 444.067 376.807L452.399 381.812Z" fill="white"/>
<path d="M435.393 383.054C436.17 381.899 437.047 381.198 438.025 380.949C439.006 380.722 440.061 380.989 441.19 381.748L448.358 386.572C449.486 387.331 450.124 388.204 450.27 389.189C450.421 390.197 450.108 391.279 449.331 392.434L447.428 395.261L445.915 394.243L447.952 391.216C448.282 390.725 448.404 390.229 448.317 389.727C448.231 389.225 447.982 388.836 447.57 388.559L439.646 383.226C439.234 382.949 438.78 382.865 438.282 382.974C437.785 383.082 437.371 383.382 437.04 383.874L435.003 386.9L433.49 385.882L435.393 383.054Z" fill="white"/>
<path d="M433.319 392.79L430.483 389.493L431.764 387.784L442.771 401.109L441.115 403.317L425.284 396.424L426.566 394.715L430.511 396.534L433.319 392.79ZM432.182 397.307L440.697 401.234L434.529 394.178L432.182 397.307Z" fill="white"/>
<path d="M421.456 406.889C420.411 406.019 419.865 405.074 419.818 404.056C419.772 403.061 420.195 402.028 421.086 400.958L423.267 398.34L424.669 399.507L422.334 402.31C421.955 402.765 421.783 403.247 421.818 403.755C421.853 404.263 422.061 404.675 422.442 404.993L424.36 406.59C424.729 406.898 425.106 407.045 425.491 407.033C425.878 407.043 426.23 406.857 426.548 406.476L427.008 405.923C427.766 405.013 428.63 404.514 429.599 404.426C430.58 404.348 431.581 404.734 432.601 405.584L433.302 406.167C434.347 407.038 434.892 407.971 434.937 408.966C434.985 409.984 434.563 411.028 433.672 412.098L431.475 414.735L430.074 413.568L432.424 410.746C432.803 410.291 432.975 409.81 432.94 409.302C432.905 408.794 432.697 408.381 432.316 408.064L430.914 406.896C430.533 406.579 430.111 406.435 429.648 406.466C429.198 406.507 428.808 406.725 428.481 407.118L428.02 407.671C427.293 408.544 426.478 409.01 425.574 409.07C424.66 409.142 423.693 408.753 422.673 407.903L421.456 406.889Z" fill="white"/>
<path d="M413.4 409.192L424.368 419.39L426.966 416.595L428.302 417.837L421.683 424.955L420.347 423.713L422.946 420.919L411.979 410.721L413.4 409.192Z" fill="white"/>
<path d="M398.59 434.246L397.398 432.897L403.243 427.733L404.435 429.082L398.59 434.246Z" fill="white"/>
<path d="M393.127 452.064L379.815 434.448L381.347 433.291L394.659 450.906L393.127 452.064Z" fill="white"/>
<path d="M377.471 462.316L365.482 443.775L367.094 442.732L379.084 461.273L377.471 462.316Z" fill="white"/>
<path d="M360.928 471.406L350.406 451.994L352.094 451.079L362.616 470.491L360.928 471.406Z" fill="white"/>
<path d="M336.588 470.297L335.856 468.653L342.982 465.481L343.714 467.125L336.588 470.297Z" fill="white"/>
<path d="M316.673 485.827L316.126 484.163L321.758 482.311L320.041 477.09L314.98 478.754L314.433 477.09L319.494 475.426L317.606 469.68L311.974 471.532L311.427 469.867L319.042 467.364L324.288 483.324L316.673 485.827Z" fill="white"/>
<path d="M302.301 482.822C301.957 481.573 302.034 480.556 302.532 479.772C303.034 479.003 303.933 478.44 305.229 478.084L307.636 477.422L305.905 471.128L307.918 470.574L312.373 486.772L308 487.975C306.689 488.336 305.621 488.315 304.796 487.911C303.96 487.527 303.37 486.71 303.027 485.46L302.301 482.822ZM305.097 485.115C305.258 485.701 305.514 486.087 305.864 486.273C306.198 486.463 306.659 486.478 307.245 486.316L309.883 485.591L308.113 479.158L305.475 479.883C304.889 480.044 304.501 480.292 304.311 480.627C304.109 480.981 304.089 481.451 304.251 482.037L305.097 485.115Z" fill="white"/>
<path d="M293.566 475.666L296.406 488.655L298.516 488.194L298.89 489.905L292.63 491.274L292.256 489.562L294.366 489.101L291.526 476.112L289.416 476.573L289.042 474.861L295.302 473.493L295.677 475.205L293.566 475.666Z" fill="white"/>
<path d="M277.12 480.706C276.902 479.364 277.108 478.292 277.739 477.492C278.357 476.711 279.353 476.208 280.727 475.984L284.091 475.435L284.384 477.235L280.784 477.822C280.2 477.918 279.754 478.169 279.448 478.575C279.141 478.982 279.028 479.43 279.108 479.92L279.51 482.383C279.587 482.857 279.775 483.215 280.074 483.458C280.36 483.72 280.748 483.81 281.237 483.731L281.948 483.615C283.116 483.424 284.095 483.613 284.885 484.181C285.678 484.765 286.181 485.713 286.394 487.023L286.541 487.923C286.76 489.266 286.56 490.328 285.942 491.109C285.311 491.909 284.308 492.422 282.934 492.646L279.547 493.198L279.253 491.398L282.878 490.807C283.462 490.712 283.907 490.461 284.214 490.054C284.52 489.647 284.634 489.199 284.554 488.71L284.26 486.909C284.18 486.42 283.955 486.035 283.586 485.755C283.218 485.491 282.782 485.4 282.277 485.482L281.566 485.598C280.445 485.781 279.523 485.599 278.802 485.052C278.065 484.507 277.589 483.58 277.375 482.269L277.12 480.706Z" fill="white"/>
<path d="M264.371 481.832C264.225 480.48 264.488 479.422 265.162 478.657C265.821 477.909 266.843 477.46 268.227 477.31L269.181 477.207C270.565 477.057 271.667 477.276 272.487 477.863C273.293 478.467 273.769 479.446 273.916 480.798L274.846 489.388C274.993 490.74 274.737 491.789 274.077 492.537C273.404 493.302 272.375 493.759 270.991 493.909L270.037 494.013C268.653 494.163 267.558 493.935 266.752 493.331C265.932 492.744 265.449 491.774 265.302 490.422L264.371 481.832ZM267.427 490.65C267.481 491.143 267.709 491.545 268.113 491.855C268.517 492.166 269.013 492.289 269.602 492.225L271.033 492.07C271.622 492.006 272.08 491.78 272.408 491.39C272.736 491 272.873 490.559 272.82 490.066L271.791 480.57C271.737 480.076 271.509 479.675 271.105 479.364C270.701 479.054 270.205 478.931 269.616 478.995L268.185 479.15C267.596 479.214 267.138 479.44 266.81 479.83C266.482 480.219 266.345 480.661 266.398 481.154L267.427 490.65Z" fill="white"/>
<path d="M252.535 481.955C252.456 480.581 252.719 479.588 253.324 478.976C253.914 478.365 254.935 478.018 256.389 477.933L261.325 477.647L262.297 494.419L257.648 494.689C256.211 494.772 255.107 494.539 254.338 493.991C253.57 493.458 253.148 492.529 253.071 491.204L252.535 481.955ZM255.168 491.298C255.199 491.825 255.382 492.232 255.719 492.517C256.057 492.817 256.49 492.953 257.017 492.922L260.108 492.743L259.344 479.565L256.277 479.743C255.671 479.778 255.231 479.94 254.959 480.228C254.688 480.532 254.571 480.988 254.606 481.595L255.168 491.298Z" fill="white"/>
<path d="M241.041 494.774L241.027 493.022L246.955 492.976L246.913 487.48L241.585 487.522L241.572 485.77L246.899 485.729L246.853 479.681L240.925 479.726L240.911 477.975L248.927 477.913L249.057 494.712L241.041 494.774Z" fill="white"/>
<path d="M216.863 479.839C216.994 478.485 217.467 477.502 218.281 476.89C219.079 476.291 220.17 476.059 221.556 476.193L224.948 476.521L224.772 478.337L221.141 477.986C220.552 477.929 220.057 478.058 219.657 478.373C219.257 478.688 219.033 479.092 218.985 479.586L218.745 482.07C218.699 482.548 218.789 482.942 219.016 483.254C219.226 483.579 219.578 483.766 220.071 483.814L220.788 483.883C221.966 483.997 222.865 484.43 223.484 485.181C224.101 485.948 224.345 486.992 224.217 488.314L224.13 489.222C223.999 490.575 223.535 491.551 222.737 492.149C221.923 492.762 220.822 493.001 219.437 492.867L216.021 492.537L216.196 490.721L219.851 491.074C220.441 491.131 220.935 491.002 221.336 490.688C221.736 490.373 221.96 489.968 222.007 489.475L222.183 487.659C222.231 487.165 222.111 486.736 221.825 486.371C221.538 486.021 221.139 485.822 220.629 485.773L219.913 485.703C218.782 485.594 217.938 485.183 217.38 484.47C216.806 483.755 216.583 482.737 216.71 481.415L216.863 479.839Z" fill="white"/>
<path d="M204.378 477.74C204.576 476.394 205.097 475.436 205.942 474.865C206.768 474.307 207.869 474.13 209.246 474.333L209.84 474.421C211.217 474.624 212.229 475.112 212.875 475.887C213.502 476.675 213.717 477.742 213.519 479.087L211.664 491.671L209.598 491.367L211.52 478.331C211.592 477.841 211.472 477.394 211.159 476.993C210.846 476.591 210.397 476.347 209.812 476.26L208.743 476.103C208.157 476.016 207.657 476.121 207.241 476.415C206.826 476.71 206.582 477.102 206.51 477.593L204.588 490.628L202.523 490.324L204.378 477.74Z" fill="white"/>
<path d="M199.232 479.321L200.614 472.499L202.661 472.914L199.324 489.379L194.902 488.483C193.569 488.213 192.626 487.712 192.072 486.979C191.5 486.259 191.342 485.264 191.6 483.994L192.057 481.736C192.417 479.964 193.346 479.001 194.847 478.848L193.04 470.964L195.275 471.417L196.927 478.853L199.232 479.321ZM193.603 484.62C193.483 485.216 193.536 485.676 193.765 486C193.977 486.32 194.381 486.541 194.977 486.662L197.635 487.2L198.875 481.085L196.217 480.546C195.621 480.425 195.162 480.471 194.842 480.684C194.502 480.909 194.272 481.319 194.152 481.915L193.603 484.62Z" fill="white"/>
<path d="M187.278 486.496L185.233 485.967L186.125 471.026L179.448 484.47L177.45 483.953L185.307 468.633L188.072 469.348L187.278 486.496Z" fill="white"/>
<path d="M166.353 480.145L166.882 478.474L172.534 480.262L174.191 475.021L169.111 473.415L169.639 471.744L174.719 473.351L176.542 467.584L170.89 465.797L171.419 464.126L179.061 466.543L173.996 482.562L166.353 480.145Z" fill="white"/>
<path d="M165.22 461.535L162.479 468.838L163.34 478.773L161.183 477.964L160.67 470.312L155.251 475.738L153.206 474.971L160.457 468.079L163.197 460.776L165.22 461.535Z" fill="white"/>
<path d="M136.329 457.269L137.128 455.656L144.118 459.116L143.319 460.729L136.329 457.269Z" fill="white"/>
<path d="M117.873 459.034L129.104 440.023L130.757 441L119.526 460.01L117.873 459.034Z" fill="white"/>
<path d="M102.387 448.333L115.047 430.243L116.62 431.344L103.96 449.434L102.387 448.333Z" fill="white"/>
<path d="M87.7477 436.486L101.755 419.418L103.239 420.636L89.2318 437.704L87.7477 436.486Z" fill="white"/>
<path d="M79.558 413.557L80.8027 412.257L86.4371 417.651L85.1923 418.951L79.558 413.557Z" fill="white"/>
<path d="M72.3979 395.186L62.3067 403.843L63.7131 405.482L62.3834 406.623L58.211 401.76L59.5407 400.619L60.9471 402.258L71.0384 393.601L69.6319 391.962L70.9616 390.821L75.1341 395.684L73.8043 396.825L72.3979 395.186Z" fill="white"/>
<path d="M67.4853 385.98L68.6742 387.518L55.3827 397.793L53.2983 395.097L62.8656 382.908L50.9791 392.097L49.7902 390.559L63.0817 380.284L65.1808 382.999L55.5988 395.169L67.4853 385.98Z" fill="white"/>
<path d="M47.7187 363.329C48.8741 362.611 49.9424 362.391 50.9236 362.667C51.8827 362.938 52.7294 363.664 53.4637 364.847L55.2614 367.742L53.7118 368.704L51.7875 365.605C51.4752 365.102 51.0725 364.787 50.5793 364.66C50.0861 364.533 49.6289 364.601 49.2075 364.862L47.087 366.179C46.6792 366.432 46.4205 366.743 46.3109 367.113C46.1792 367.477 46.2442 367.87 46.5058 368.291L46.8856 368.903C47.5102 369.909 47.7116 370.885 47.4901 371.833C47.2549 372.789 46.5732 373.617 45.445 374.317L44.6702 374.798C43.5148 375.516 42.4575 375.739 41.4984 375.468C40.5172 375.192 39.6595 374.463 38.9252 373.281L37.1148 370.365L38.6644 369.403L40.6014 372.522C40.9137 373.025 41.3164 373.34 41.8096 373.467C42.3027 373.594 42.76 373.527 43.1814 373.265L44.731 372.303C45.1524 372.041 45.4214 371.686 45.538 371.237C45.6411 370.796 45.5576 370.358 45.2875 369.923L44.9077 369.312C44.3085 368.347 44.1229 367.426 44.3511 366.55C44.5708 365.66 45.2448 364.865 46.373 364.164L47.7187 363.329Z" fill="white"/>
<path d="M45.0594 358.368L49.2311 357.136L50.2628 359.006L33.5934 363.569L32.2603 361.153L45.0462 349.549L46.078 351.42L42.7989 354.27L45.0594 358.368ZM41.4082 355.476L34.3312 361.627L43.2978 358.901L41.4082 355.476Z" fill="white"/>
<path d="M42.991 344.599L29.5207 351.144L31.1883 354.576L29.5477 355.373L25.3 346.631L26.9406 345.834L28.6082 349.266L42.0785 342.721L42.991 344.599Z" fill="white"/>
<path d="M32.3334 329.925C33.586 329.395 34.6755 329.343 35.6021 329.767C36.5078 330.183 37.2317 331.032 37.774 332.315L38.1479 333.199C38.6902 334.481 38.7983 335.599 38.4724 336.553C38.1254 337.499 37.3257 338.237 36.0731 338.767L28.1156 342.133C26.8631 342.662 25.784 342.719 24.8783 342.303C23.9517 341.879 23.2173 341.025 22.6751 339.743L22.3011 338.859C21.7588 337.577 21.6612 336.463 22.0081 335.517C22.3341 334.563 23.1234 333.821 24.3759 333.291L32.3334 329.925ZM24.7693 335.392C24.3125 335.585 23.9937 335.919 23.8128 336.395C23.632 336.872 23.6569 337.382 23.8875 337.927L24.4485 339.254C24.6791 339.799 25.0282 340.172 25.4957 340.374C25.9633 340.576 26.4254 340.58 26.8823 340.387L35.6797 336.666C36.1365 336.473 36.4553 336.138 36.6362 335.662C36.817 335.186 36.7921 334.676 36.5615 334.13L36.0006 332.804C35.7699 332.259 35.4209 331.885 34.9533 331.683C34.4858 331.482 34.0236 331.477 33.5668 331.671L24.7693 335.392Z" fill="white"/>
<path d="M28.743 319.193C30.0216 318.729 31.1124 318.734 32.0155 319.207C32.8981 319.67 33.5765 320.555 34.0508 321.864L35.212 325.068L33.4972 325.69L32.2542 322.26C32.0525 321.703 31.7234 321.312 31.2671 321.086C30.8108 320.86 30.3495 320.831 29.8832 321L27.5365 321.851C27.0852 322.014 26.7678 322.266 26.5843 322.604C26.3803 322.934 26.3628 323.331 26.5318 323.798L26.7771 324.475C27.1805 325.588 27.176 326.585 26.7636 327.466C26.3362 328.353 25.4982 329.023 24.2497 329.475L23.3923 329.786C22.1136 330.249 21.033 330.25 20.1505 329.787C19.2474 329.314 18.5587 328.423 18.0844 327.115L16.915 323.888L18.6299 323.266L19.881 326.719C20.0828 327.275 20.4118 327.667 20.8681 327.893C21.3244 328.119 21.7858 328.147 22.2521 327.978L23.9669 327.357C24.4332 327.188 24.7698 326.896 24.9767 326.48C25.1685 326.07 25.1772 325.625 25.0027 325.143L24.7574 324.466C24.3703 323.398 24.3788 322.459 24.783 321.649C25.1816 320.824 26.0052 320.185 27.2538 319.733L28.743 319.193Z" fill="white"/>
<path d="M23.8638 314.852L31.2581 312.606L31.865 314.604L15.7904 319.487L15.1835 317.489L22.1645 315.369L20.7274 310.638L13.7464 312.759L13.1394 310.761L29.2141 305.878L29.821 307.875L22.4267 310.122L23.8638 314.852Z" fill="white"/>
<path d="M26.2605 300.086L13.3515 303.271L13.8688 305.368L12.1678 305.787L10.6331 299.566L12.3341 299.146L12.8514 301.243L25.7605 298.059L25.2432 295.962L26.9442 295.542L28.4789 301.764L26.7779 302.183L26.2605 300.086Z" fill="white"/>
<path d="M17.3018 277.419L24.2635 277.947L24.6725 280.798L8.15874 283.992L7.90649 282.234L22.6522 279.391L14.5295 278.544L14.3182 277.071L21.8681 273.927L6.91453 275.321L6.67932 273.681L23.4249 272.103L23.8544 275.096L17.3018 277.419Z" fill="white"/>
<path d="M5.92917 262.582L7.67367 262.42L8.22153 268.322L13.694 267.814L13.2016 262.509L14.9461 262.347L15.4385 267.652L21.4606 267.093L20.9128 261.191L22.6573 261.029L23.3981 269.011L6.66999 270.563L5.92917 262.582Z" fill="white"/>
<path d="M22.7276 242.107L7.7526 241.934L7.70841 245.75L5.88453 245.728L5.99709 236.009L7.82097 236.03L7.77678 239.846L22.7518 240.019L22.7276 242.107Z" fill="white"/>
<path d="M16.3717 231.798L23.3185 232.228L23.1897 234.312L6.42167 233.275L6.70002 228.772C6.78393 227.414 7.15052 226.411 7.79981 225.762C8.43411 225.096 9.39803 224.803 10.6916 224.883L12.9912 225.025C14.7957 225.136 15.8772 225.925 16.2355 227.389L23.7952 224.514L23.6546 226.79L16.5168 229.451L16.3717 231.798ZM10.3472 226.953C9.74032 226.916 9.29227 227.032 9.00302 227.303C8.71476 227.558 8.55187 227.989 8.51436 228.595L8.34705 231.302L14.5752 231.687L14.7425 228.98C14.78 228.374 14.6714 227.926 14.4167 227.638C14.147 227.333 13.7087 227.161 13.1019 227.124L10.3472 226.953Z" fill="white"/>
<path d="M21.4045 212.191C22.7555 212.348 23.7292 212.84 24.3259 213.666C24.9085 214.475 25.1195 215.57 24.9589 216.953L24.8897 217.549C24.7291 218.932 24.2716 219.958 23.5174 220.627C22.749 221.279 21.6894 221.526 20.3385 221.369L7.70343 219.902L7.94433 217.828L21.0323 219.348C21.525 219.405 21.9674 219.271 22.3595 218.946C22.7516 218.621 22.9819 218.165 23.0502 217.577L23.1748 216.504C23.2431 215.916 23.1236 215.419 22.8164 215.013C22.5092 214.607 22.1093 214.375 21.6166 214.318L8.52858 212.798L8.76948 210.724L21.4045 212.191Z" fill="white"/>
<path d="M23.4598 201.48C24.8013 201.704 25.7493 202.244 26.304 203.099C26.8456 203.936 27.0017 205.04 26.7723 206.413L26.2108 209.775L24.4117 209.474L25.0128 205.876C25.1103 205.292 25.0158 204.79 24.7293 204.369C24.4427 203.948 24.0548 203.697 23.5656 203.615L21.1037 203.204C20.6303 203.124 20.2304 203.187 19.9042 203.393C19.5648 203.579 19.3542 203.917 19.2725 204.406L19.1539 205.116C18.9588 206.284 18.4653 207.151 17.6733 207.716C16.8656 208.279 15.8068 208.451 14.497 208.232L13.5974 208.081C12.256 207.857 11.3145 207.327 10.773 206.49C10.2183 205.635 10.0556 204.521 10.285 203.148L10.8504 199.763L12.6495 200.064L12.0445 203.686C11.9469 204.269 12.0415 204.772 12.328 205.193C12.6146 205.614 13.0025 205.865 13.4917 205.947L15.2908 206.247C15.78 206.329 16.2167 206.24 16.6008 205.98C16.9691 205.717 17.1955 205.333 17.2798 204.828L17.3985 204.118C17.5856 202.997 18.0541 202.183 18.804 201.676C19.5565 201.153 20.5876 201 21.8975 201.219L23.4598 201.48Z" fill="white"/>
<path d="M29.2379 195.34L14.6196 192.086L13.7905 195.811L12.0101 195.415L14.1219 185.927L15.9023 186.323L15.0733 190.048L29.6915 193.302L29.2379 195.34Z" fill="white"/>
<path d="M29.5365 165.822L31.2443 166.39L28.7807 173.791L27.0728 173.222L29.5365 165.822Z" fill="white"/>
<path d="M25.0554 148.227L45.4232 156.752L44.6819 158.524L24.3141 149.998L25.0554 148.227Z" fill="white"/>
<path d="M33.732 130.928L53.3724 141.016L52.4952 142.724L32.8547 132.636L33.732 130.928Z" fill="white"/>
<path d="M42.9394 115.604L61.7828 127.113L60.782 128.752L41.9387 117.243L42.9394 115.604Z" fill="white"/>
<path d="M64.6504 104.062L66.1099 105.115L61.5446 111.44L60.0852 110.386L64.6504 104.062Z" fill="white"/>
<path d="M83.1686 89.3838C84.1878 90.2843 84.7063 91.244 84.724 92.2631C84.7403 93.2596 84.2876 94.2795 83.366 95.3227L81.1095 97.8767L79.7426 96.669L82.1579 93.9351C82.5499 93.4915 82.7358 93.0152 82.7157 92.5064C82.6955 91.9975 82.4996 91.5789 82.1279 91.2505L80.2573 89.5979C79.8976 89.2801 79.5251 89.1218 79.1398 89.123C78.753 89.1015 78.3955 89.2767 78.0671 89.6484L77.5904 90.188C76.8064 91.0753 75.9289 91.549 74.9578 91.6091C73.9747 91.6585 72.9855 91.2436 71.9903 90.3644L71.3068 89.7605C70.2876 88.8601 69.7698 87.9116 69.7535 86.9151C69.7358 85.896 70.1878 84.8649 71.1095 83.8217L73.3818 81.2497L74.7487 82.4574L72.3175 85.2092C71.9255 85.6529 71.7396 86.1291 71.7598 86.638C71.7799 87.1468 71.9758 87.5654 72.3475 87.8938L73.7145 89.1015C74.0862 89.4299 74.5039 89.5854 74.9675 89.5681C75.4192 89.5401 75.8146 89.3343 76.1536 88.9506L76.6303 88.411C77.3824 87.5597 78.2109 87.1174 79.1156 87.0841C80.031 87.0388 80.9863 87.4558 81.9815 88.3351L83.1686 89.3838Z" fill="white"/>
<path d="M92.9465 79.743C93.9151 80.6977 94.3805 81.6842 94.3426 82.7028C94.3046 83.6987 93.797 84.6924 92.8199 85.6838L92.3988 86.1111C91.4216 87.1025 90.4298 87.6302 89.4234 87.6941C88.4167 87.7353 87.4291 87.2786 86.4604 86.324L77.4009 77.3952L78.8666 75.908L88.2509 85.1569C88.6042 85.5051 89.0353 85.6717 89.5443 85.6567C90.0533 85.6416 90.5156 85.4233 90.9312 85.0017L91.6893 84.2325C92.1048 83.8108 92.3164 83.3454 92.324 82.8362C92.3317 82.3271 92.1588 81.8984 91.8056 81.5502L82.4213 72.3013L83.8869 70.8142L92.9465 79.743Z" fill="white"/>
<path d="M94.4089 74.8425L99.1112 79.9738L97.5718 81.3845L86.2215 68.9985L89.548 65.9502C90.5507 65.0313 91.511 64.5636 92.429 64.5471C93.348 64.5079 94.2453 64.966 95.1209 65.9215L96.6775 67.6202C97.899 68.9531 98.1303 70.2712 97.3713 71.5744L104.809 74.7527L103.128 76.293L96.1429 73.2534L94.4089 74.8425ZM93.4356 67.173C93.0248 66.7247 92.6214 66.4976 92.2253 66.4916C91.841 66.4749 91.4247 66.6719 90.9764 67.0826L88.977 68.9149L93.1928 73.5154L95.1923 71.6831C95.6405 71.2724 95.873 70.8748 95.8898 70.4905C95.9075 70.0836 95.711 69.656 95.3003 69.2078L93.4356 67.173Z" fill="white"/>
<path d="M95.3129 61.1589L96.9406 59.8131L108.52 69.2979L101.546 56.0052L103.137 54.69L110.938 70.0386L108.737 71.8584L95.3129 61.1589Z" fill="white"/>
<path d="M112.387 48.1071L113.433 49.5125L108.677 53.052L111.959 57.4608L116.233 54.2796L117.279 55.685L113.005 58.8662L116.616 63.7179L121.371 60.1784L122.417 61.5839L115.987 66.37L105.956 52.8932L112.387 48.1071Z" fill="white"/>
<path d="M129.18 57.3403L124.873 50.8374L116.321 45.7062L118.242 44.4339L124.74 48.5072L123.525 40.9352L125.346 39.7292L126.674 49.6446L130.981 56.1476L129.18 57.3403Z" fill="white"/>
<path d="M147.388 47.052L145.668 47.9594L137.827 33.1017L140.841 31.511L151.207 43.0281L144.194 29.7411L145.914 28.8337L153.755 43.6914L150.72 45.2933L140.375 33.765L147.388 47.052Z" fill="white"/>
<path d="M159.583 31.01L160.32 32.5998L155.485 34.8387L158.662 41.6988L156.767 42.5762L149.707 27.3316L156.981 23.963L157.717 25.5529L152.338 28.0439L154.749 33.2489L159.583 31.01Z" fill="white"/>
<path d="M170.296 36.9411L164.72 23.0415L161.179 24.462L160.5 22.7691L169.521 19.1507L170.2 20.8436L166.658 22.2642L172.234 36.1638L170.296 36.9411Z" fill="white"/>
<path d="M194.753 20.4935L195.25 22.2235L187.753 24.3776L187.256 22.6476L194.753 20.4935Z" fill="white"/>
<path d="M206.991 6.78755L211.459 28.4108L209.579 28.7993L205.111 7.17605L206.991 6.78755Z" fill="white"/>
<path d="M225.755 4.20715L228.555 26.1089L226.651 26.3524L223.851 4.45063L225.755 4.20715Z" fill="white"/>
<path d="M243.253 3.11829L244.446 25.1661L242.528 25.2698L241.336 3.22196L243.253 3.11829Z" fill="white"/>
<path d="M266.846 14.5032L266.798 16.3025L259 16.0918L259.049 14.2925L266.846 14.5032Z" fill="white"/>
<path d="M290.541 21.6928C290.372 23.0101 289.878 23.9712 289.059 24.5762C288.258 25.1673 287.246 25.3848 286.024 25.2285L285.548 25.1677C284.326 25.0114 283.393 24.5454 282.75 23.7696C282.125 22.98 281.897 21.9266 282.066 20.6093L283.161 12.039C283.332 10.7059 283.818 9.74375 284.619 9.15261C285.421 8.56147 286.44 8.34504 287.678 8.5033L288.154 8.56417C289.392 8.72244 290.325 9.18845 290.952 9.9622C291.578 10.736 291.807 11.7894 291.636 13.1226L290.541 21.6928ZM289.671 12.4115C289.733 11.9195 289.597 11.4746 289.261 11.0768C288.942 10.6651 288.497 10.4227 287.926 10.3496L287.45 10.2888C286.879 10.2157 286.379 10.3374 285.951 10.6537C285.542 10.9562 285.306 11.3534 285.243 11.8454L284.418 18.2969L289.671 12.4115ZM284.031 21.3203C283.968 21.8123 284.096 22.2641 284.414 22.6758C284.751 23.0737 285.205 23.3092 285.776 23.3822L286.252 23.4431C286.823 23.5161 287.314 23.4014 287.724 23.0989C288.151 22.7826 288.396 22.3784 288.459 21.8864L289.281 15.4587L284.031 21.3203Z" fill="white"/>
<path d="M293.75 26.6549L291.529 26.2576L296.305 20.8216L293.926 14.4958L296.265 14.9142L297.799 19.2846L300.801 15.7255L302.998 16.1185L298.543 21.1243L301.192 27.986L298.829 27.5634L297.148 22.6546L293.75 26.6549Z" fill="white"/>
<path d="M313.506 26.9369C313.202 28.2298 312.612 29.1349 311.735 29.6522C310.877 30.1576 309.848 30.2696 308.648 29.9882L308.181 29.8786C306.982 29.5972 306.102 29.0375 305.543 28.1996C305.003 27.3497 304.884 26.2784 305.188 24.9855L307.161 16.5739C307.468 15.2654 308.05 14.3585 308.909 13.8531C309.767 13.3477 310.803 13.2376 312.018 13.5226L312.486 13.6323C313.701 13.9173 314.58 14.477 315.124 15.3112C315.668 16.1455 315.786 17.2169 315.479 18.5253L313.506 26.9369ZM313.597 17.6154C313.71 17.1326 313.62 16.6759 313.327 16.2455C313.053 15.8032 312.635 15.5162 312.074 15.3847L311.607 15.275C311.046 15.1435 310.537 15.213 310.079 15.4836C309.64 15.7422 309.364 16.113 309.251 16.5959L307.766 22.9279L313.597 17.6154ZM307.069 25.8954C306.956 26.3783 307.037 26.8409 307.311 27.2832C307.604 27.7136 308.031 27.9946 308.592 28.1261L309.06 28.2358C309.62 28.3673 310.12 28.3038 310.559 28.0451C311.017 27.7746 311.302 27.3978 311.415 26.915L312.896 20.6062L307.069 25.8954Z" fill="white"/>
<path d="M325.347 30.6199C324.976 31.8949 324.338 32.7673 323.434 33.2373C322.551 33.6964 321.517 33.7535 320.335 33.4088L319.874 33.2745C318.691 32.9298 317.843 32.3242 317.328 31.4578C316.834 30.5804 316.773 29.5043 317.144 28.2293L319.562 19.9344C319.938 18.6441 320.568 17.7694 321.452 17.3104C322.335 16.8513 323.376 16.7963 324.574 17.1455L325.035 17.2798C326.233 17.629 327.082 18.2346 327.581 19.0966C328.079 19.9586 328.141 21.0347 327.765 22.325L325.347 30.6199ZM325.934 21.3165C326.072 20.8403 326.007 20.3795 325.737 19.9341C325.486 19.4778 325.085 19.1691 324.532 19.0079L324.071 18.8736C323.518 18.7125 323.005 18.7548 322.534 19.0007C322.082 19.2357 321.787 19.5912 321.648 20.0674L319.828 26.3117L325.934 21.3165ZM318.975 29.2379C318.837 29.7141 318.892 30.1803 319.143 30.6366C319.413 31.082 319.824 31.3853 320.377 31.5464L320.838 31.6807C321.391 31.8419 321.894 31.805 322.345 31.57C322.817 31.3241 323.122 30.9631 323.261 30.4869L325.074 24.2658L318.975 29.2379Z" fill="white"/>
<path d="M336.822 34.8792C336.384 36.1328 335.701 36.9703 334.774 37.3919C333.867 37.8037 332.832 37.8062 331.669 37.3995L331.216 37.241C330.053 36.8344 329.238 36.1848 328.771 35.2924C328.323 34.3902 328.319 33.3123 328.757 32.0588L331.609 23.9031C332.053 22.6344 332.728 21.7942 333.635 21.3825C334.542 20.9707 335.584 20.9708 336.762 21.3828L337.215 21.5413C338.393 21.9533 339.209 22.6028 339.661 23.4899C340.114 24.377 340.118 25.4549 339.674 26.7236L336.822 34.8792ZM337.899 25.6197C338.063 25.1515 338.022 24.6879 337.776 24.2289C337.55 23.76 337.165 23.4305 336.621 23.2404L336.168 23.0819C335.624 22.8918 335.111 22.907 334.627 23.1276C334.163 23.3384 333.849 23.6779 333.686 24.1461L331.539 30.2855L337.899 25.6197ZM330.532 33.1626C330.369 33.6308 330.4 34.0993 330.626 34.5682C330.872 35.0272 331.267 35.3518 331.811 35.542L332.264 35.7004C332.807 35.8905 333.311 35.8802 333.775 35.6694C334.259 35.4488 334.582 35.1044 334.746 34.6362L336.885 28.5195L330.532 33.1626Z" fill="white"/>
<path d="M347.933 39.6889C347.43 40.9177 346.704 41.7183 345.756 42.0906C344.829 42.4542 343.795 42.4024 342.655 41.9352L342.211 41.7532C341.071 41.286 340.291 40.5946 339.871 39.6789C339.472 38.7544 339.524 37.6778 340.027 36.449L343.304 28.4543C343.813 27.2107 344.532 26.4071 345.459 26.0435C346.386 25.6799 347.427 25.7347 348.582 26.2079L349.026 26.39C350.181 26.8632 350.961 27.5547 351.366 28.4643C351.771 29.3739 351.719 30.4506 351.21 31.6942L347.933 39.6889ZM349.495 30.4987C349.683 30.0397 349.666 29.5746 349.444 29.1033C349.243 28.6232 348.876 28.2739 348.343 28.0555L347.899 27.8735C347.366 27.6551 346.852 27.6433 346.357 27.8382C345.883 28.0244 345.552 28.347 345.364 28.8059L342.898 34.8242L349.495 30.4987ZM341.742 37.6445C341.554 38.1035 341.56 38.573 341.761 39.053C341.983 39.5244 342.361 39.8692 342.894 40.0877L343.338 40.2697C343.871 40.4881 344.374 40.5042 344.848 40.3181C345.343 40.1232 345.685 39.7962 345.873 39.3373L348.33 33.3412L341.742 37.6445Z" fill="white"/>
<path d="M358.68 45.0265C358.113 46.2273 357.346 46.989 356.38 47.3113C355.436 47.626 354.406 47.5204 353.292 46.9944L352.858 46.7894C351.744 46.2634 351.001 45.5322 350.629 44.5959C350.279 43.6518 350.387 42.5794 350.954 41.3785L354.643 33.5656C355.217 32.3503 355.976 31.5852 356.921 31.2705C357.866 30.9558 358.902 31.0648 360.031 31.5977L360.465 31.8026C361.593 32.3355 362.336 33.0667 362.694 33.9962C363.051 34.9258 362.943 35.9982 362.369 37.2136L358.68 45.0265ZM360.719 35.9302C360.931 35.4817 360.938 35.0163 360.741 34.5341C360.566 34.0442 360.217 33.6763 359.696 33.4303L359.262 33.2254C358.741 32.9795 358.229 32.9409 357.725 33.1097C357.241 33.2709 356.894 33.5758 356.682 34.0243L353.905 39.9057L360.719 35.9302ZM352.604 42.6619C352.392 43.1104 352.374 43.5796 352.55 44.0695C352.747 44.5517 353.106 44.9158 353.626 45.1618L354.061 45.3667C354.581 45.6126 355.083 45.655 355.566 45.4938C356.071 45.325 356.429 45.0163 356.641 44.5678L359.407 38.7081L352.604 42.6619Z" fill="white"/>
<path d="M369.062 50.8722C368.433 52.042 367.628 52.7628 366.647 53.0347C365.687 53.3 364.664 53.1411 363.579 52.558L363.156 52.3308C362.071 51.7477 361.367 50.979 361.044 50.0246C360.743 49.0637 360.907 47.9983 361.535 46.8284L365.625 39.2174C366.261 38.0334 367.059 37.3088 368.018 37.0435C368.978 36.7782 370.008 36.9409 371.107 37.5315L371.53 37.7587C372.63 38.3494 373.334 39.1181 373.642 40.0649C373.951 41.0118 373.787 42.0771 373.151 43.2611L369.062 50.8722ZM371.57 41.8939C371.805 41.457 371.836 40.9926 371.664 40.5008C371.514 40.0024 371.186 39.6169 370.678 39.3443L370.255 39.1172C369.748 38.8445 369.238 38.7795 368.726 38.9219C368.235 39.0578 367.872 39.3442 367.637 39.7812L364.559 45.5106L371.57 41.8939ZM363.117 48.1956C362.882 48.6325 362.839 49.1002 362.989 49.5985C363.161 50.0903 363.501 50.4726 364.008 50.7452L364.431 50.9723C364.938 51.245 365.437 51.3133 365.928 51.1774C366.441 51.035 366.814 50.7453 367.049 50.3083L370.116 44.6L363.117 48.1956Z" fill="white"/>
<path d="M379.075 57.2086C378.387 58.3445 377.546 59.0228 376.552 59.2437C375.58 59.4591 374.567 59.2477 373.513 58.6094L373.102 58.3607C372.048 57.7224 371.385 56.9184 371.112 55.9486C370.861 54.9734 371.079 53.9179 371.767 52.782L376.244 45.392C376.94 44.2425 377.774 43.56 378.747 43.3445C379.719 43.1291 380.739 43.3447 381.806 43.9913L382.217 44.2399C383.284 44.8865 383.948 45.6906 384.207 46.6521C384.466 47.6135 384.248 48.6691 383.552 49.8186L379.075 57.2086ZM382.043 48.3717C382.3 47.9474 382.355 47.4853 382.209 46.9853C382.085 46.4799 381.777 46.0779 381.284 45.7795L380.874 45.5308C380.381 45.2324 379.875 45.1411 379.356 45.2569C378.859 45.3673 378.482 45.6347 378.225 46.0589L374.855 51.6219L382.043 48.3717ZM373.276 54.229C373.019 54.6532 372.953 55.118 373.077 55.6234C373.223 56.1235 373.542 56.5227 374.035 56.8211L374.445 57.0698C374.938 57.3682 375.433 57.4622 375.93 57.3518C376.449 57.236 376.837 56.966 377.094 56.5417L380.451 50.9992L373.276 54.229Z" fill="white"/>
<path d="M388.716 64.0202C387.97 65.1192 387.095 65.7535 386.091 65.923C385.109 66.0882 384.108 65.8251 383.089 65.1335L382.691 64.8641C381.672 64.1725 381.05 63.3355 380.828 62.353C380.627 61.3662 380.899 60.3233 381.645 59.2242L386.494 52.0738C387.249 50.9615 388.117 50.3227 389.099 50.1575C390.081 49.9923 391.089 50.2599 392.122 50.9605L392.519 51.2299C393.552 51.9304 394.173 52.7675 394.383 53.741C394.592 54.7145 394.32 55.7574 393.565 56.8697L388.716 64.0202ZM392.133 55.3473C392.412 54.9368 392.491 54.4781 392.37 53.9712C392.272 53.4601 391.985 53.0429 391.508 52.7196L391.111 52.4501C390.634 52.1268 390.134 52.0097 389.61 52.0987C389.107 52.1834 388.717 52.431 388.439 52.8415L384.788 58.2242L392.133 55.3473ZM383.077 60.7467C382.799 61.1572 382.708 61.618 382.806 62.1291C382.927 62.636 383.225 63.0511 383.702 63.3744L384.099 63.6438C384.576 63.9672 385.065 64.0865 385.567 64.0017C386.092 63.9127 386.493 63.663 386.771 63.2525L390.409 57.8896L383.077 60.7467Z" fill="white"/>
<path d="M397.976 71.2928C397.175 72.3523 396.269 72.941 395.257 73.0589C394.268 73.1737 393.282 72.8597 392.299 72.1169L391.916 71.8275C390.933 71.0847 390.355 70.217 390.183 69.2244C390.033 68.2286 390.358 67.201 391.159 66.1415L396.368 59.2484C397.179 58.1762 398.078 57.5827 399.068 57.4679C400.057 57.3531 401.049 57.6719 402.045 58.4243L402.428 58.7137C403.423 59.4661 404.001 60.3339 404.161 61.3168C404.32 62.2998 403.995 63.3275 403.185 64.3997L397.976 71.2928ZM401.832 62.806C402.131 62.4103 402.234 61.9562 402.139 61.4439C402.068 60.9284 401.802 60.497 401.343 60.1498L400.96 59.8604C400.5 59.5131 400.006 59.3705 399.478 59.4326C398.972 59.4915 398.57 59.7189 398.271 60.1146L394.349 65.3035L401.832 62.806ZM392.512 67.7353C392.213 68.131 392.099 68.5866 392.171 69.102C392.265 69.6144 392.542 70.0442 393.001 70.3915L393.384 70.6808C393.844 71.0281 394.326 71.1723 394.832 71.1133C395.36 71.0513 395.774 70.8224 396.073 70.4266L399.98 65.2568L392.512 67.7353Z" fill="white"/>
<path d="M408.005 80.0403C407.147 81.0544 406.211 81.5928 405.194 81.6552C404.2 81.7158 403.232 81.3485 402.292 80.5531L401.925 80.2432C400.984 79.4478 400.455 78.5499 400.337 77.5493C400.242 76.5469 400.623 75.5385 401.48 74.5244L407.058 67.9261C407.925 66.8997 408.856 66.3562 409.85 66.2956C410.844 66.235 411.818 66.6076 412.771 67.4133L413.137 67.7231C414.091 68.5288 414.62 69.4268 414.726 70.417C414.831 71.4073 414.45 72.4156 413.583 73.442L408.005 80.0403ZM412.319 71.7768C412.639 71.398 412.766 70.9502 412.7 70.4335C412.657 69.9149 412.415 69.4696 411.975 69.0978L411.609 68.7879C411.169 68.416 410.684 68.2467 410.153 68.2798C409.644 68.3111 409.23 68.5161 408.91 68.8949L404.711 73.8619L412.319 71.7768ZM402.743 76.1896C402.423 76.5684 402.285 77.0171 402.328 77.5357C402.394 78.0524 402.647 78.4967 403.087 78.8686L403.454 79.1785C403.894 79.5503 404.368 79.7206 404.876 79.6894C405.407 79.6562 405.832 79.4503 406.152 79.0715L410.336 74.1228L402.743 76.1896Z" fill="white"/>
<path d="M416.398 88.232C415.49 89.2012 414.527 89.6912 413.509 89.7018C412.513 89.7118 411.566 89.2956 410.666 88.4534L410.316 88.1253C409.417 87.2831 408.934 86.3594 408.867 85.3541C408.823 84.3481 409.255 83.3604 410.162 82.3912L416.069 76.0853C416.988 75.1044 417.945 74.609 418.941 74.599C419.937 74.5891 420.89 75.0107 421.801 75.8638L422.151 76.192C423.062 77.0451 423.545 77.9689 423.6 78.9632C423.655 79.9575 423.223 80.9452 422.305 81.9261L416.398 88.232ZM421.128 80.1987C421.467 79.8367 421.616 79.396 421.577 78.8766C421.56 78.3564 421.341 77.8995 420.921 77.5057L420.57 77.1776C420.15 76.7838 419.674 76.59 419.142 76.5961C418.633 76.6014 418.209 76.7851 417.869 77.1471L413.423 81.894L421.128 80.1987ZM411.34 84.1186C411.001 84.4806 410.84 84.9217 410.857 85.4418C410.896 85.9612 411.126 86.4178 411.547 86.8116L411.897 87.1397C412.317 87.5335 412.782 87.7277 413.291 87.7223C413.823 87.7163 414.259 87.5322 414.598 87.1702L419.027 82.4408L411.34 84.1186Z" fill="white"/>
<path d="M424.377 96.841C423.421 97.7629 422.434 98.2032 421.416 98.1621C420.421 98.1214 419.496 97.6576 418.641 96.7708L418.308 96.4253C417.452 95.5384 417.017 94.5913 417.001 93.5839C417.008 92.577 417.49 91.6126 418.446 90.6908L424.665 84.6934C425.633 83.7604 426.614 83.3143 427.609 83.355C428.604 83.3957 429.535 83.8653 430.401 84.7636L430.734 85.1091C431.6 86.0075 432.036 86.9546 432.04 87.9504C432.045 88.9463 431.563 89.9107 430.596 90.8436L424.377 96.841ZM429.508 89.0586C429.865 88.7143 430.037 88.2818 430.024 87.7611C430.033 87.2407 429.838 86.7732 429.438 86.3586L429.105 86.0131C428.705 85.5985 428.24 85.3807 427.708 85.3597C427.199 85.3391 426.766 85.501 426.409 85.8453L421.728 90.36L429.508 89.0586ZM419.534 92.4758C419.177 92.8201 418.993 93.2524 418.984 93.7727C418.997 94.2935 419.203 94.7612 419.603 95.1758L419.936 95.5213C420.336 95.9359 420.791 96.1535 421.299 96.1741C421.831 96.1951 422.275 96.0334 422.632 95.6891L427.297 91.191L419.534 92.4758Z" fill="white"/>
<path d="M431.925 105.855C430.923 106.727 429.915 107.117 428.901 107.024C427.91 106.933 427.009 106.423 426.2 105.493L425.885 105.131C425.076 104.202 424.689 103.234 424.725 102.227C424.783 101.222 425.313 100.283 426.315 99.4114L432.831 93.7381C433.845 92.8556 434.847 92.46 435.839 92.5512C436.831 92.6425 437.736 93.1588 438.556 94.1L438.871 94.462C439.691 95.4033 440.077 96.3713 440.031 97.3661C439.985 98.3609 439.455 99.2996 438.441 100.182L431.925 105.855ZM437.446 98.3441C437.82 98.0184 438.014 97.5951 438.027 97.0744C438.063 96.5552 437.892 96.0784 437.513 95.644L437.198 95.2819C436.82 94.8475 436.366 94.6063 435.836 94.5583C435.329 94.5119 434.889 94.6516 434.515 94.9773L429.609 99.248L437.446 98.3441ZM427.31 101.249C426.936 101.575 426.731 101.998 426.695 102.517C426.682 103.037 426.864 103.515 427.243 103.949L427.558 104.311C427.936 104.746 428.379 104.986 428.886 105.033C429.416 105.081 429.867 104.942 430.242 104.616L435.129 100.361L427.31 101.249Z" fill="white"/>
<path d="M439.868 116.4C438.82 117.216 437.792 117.55 436.785 117.402C435.799 117.257 434.928 116.698 434.171 115.726L433.876 115.347C433.119 114.375 432.786 113.388 432.877 112.384C432.99 111.384 433.57 110.475 434.618 109.659L441.434 104.35C442.494 103.524 443.517 103.184 444.502 103.329C445.487 103.475 446.364 104.039 447.13 105.024L447.425 105.403C448.192 106.387 448.525 107.375 448.425 108.366C448.325 109.357 447.744 110.265 446.684 111.091L439.868 116.4ZM445.79 109.201C446.182 108.896 446.398 108.484 446.44 107.965C446.504 107.449 446.359 106.963 446.005 106.509L445.71 106.13C445.356 105.676 444.916 105.41 444.39 105.333C443.886 105.259 443.439 105.375 443.047 105.679L437.916 109.676L445.79 109.201ZM435.511 111.549C435.12 111.854 434.892 112.264 434.828 112.781C434.786 113.3 434.942 113.787 435.296 114.241L435.591 114.62C435.945 115.074 436.374 115.339 436.878 115.413C437.404 115.489 437.863 115.376 438.254 115.071L443.367 111.089L435.511 111.549Z" fill="white"/>
<path d="M446.429 126.2C445.34 126.961 444.297 127.242 443.298 127.043C442.322 126.847 441.48 126.245 440.774 125.236L440.499 124.842C439.792 123.833 439.51 122.83 439.652 121.832C439.816 120.839 440.442 119.961 441.53 119.2L448.608 114.246C449.709 113.475 450.748 113.187 451.725 113.383C452.701 113.578 453.547 114.187 454.263 115.21L454.538 115.603C455.254 116.625 455.536 117.629 455.385 118.613C455.234 119.598 454.608 120.475 453.507 121.246L446.429 126.2ZM452.711 119.313C453.117 119.028 453.355 118.628 453.423 118.112C453.513 117.599 453.394 117.107 453.063 116.635L452.788 116.242C452.458 115.77 452.032 115.482 451.51 115.378C451.011 115.279 450.558 115.371 450.152 115.656L444.823 119.385L452.711 119.313ZM442.326 121.132C441.919 121.417 441.671 121.815 441.58 122.328C441.512 122.844 441.643 123.338 441.973 123.81L442.249 124.204C442.579 124.675 442.994 124.961 443.493 125.061C444.015 125.165 444.479 125.074 444.885 124.79L450.194 121.074L442.326 121.132Z" fill="white"/>
<path d="M452.508 136.36C451.382 137.065 450.325 137.292 449.338 137.042C448.373 136.796 447.564 136.152 446.91 135.107L446.655 134.701C446.001 133.656 445.771 132.64 445.964 131.651C446.178 130.667 446.848 129.823 447.974 129.118L455.297 124.534C456.437 123.82 457.489 123.586 458.454 123.832C459.419 124.077 460.233 124.728 460.895 125.786L461.15 126.193C461.812 127.251 462.043 128.268 461.841 129.243C461.64 130.218 460.97 131.062 459.831 131.776L452.508 136.36ZM459.135 129.805C459.555 129.541 459.813 129.154 459.908 128.641C460.024 128.134 459.93 127.636 459.624 127.148L459.369 126.741C459.064 126.253 458.653 125.944 458.137 125.814C457.644 125.689 457.187 125.758 456.766 126.021L451.253 129.472L459.135 129.805ZM448.67 131.089C448.25 131.352 447.981 131.737 447.864 132.245C447.77 132.757 447.875 133.257 448.181 133.745L448.436 134.152C448.741 134.64 449.141 134.947 449.634 135.072C450.15 135.203 450.618 135.136 451.039 134.873L456.531 131.435L448.67 131.089Z" fill="white"/>
<path d="M458.085 146.867C456.925 147.512 455.858 147.685 454.885 147.384C453.934 147.089 453.159 146.404 452.56 145.327L452.326 144.908C451.727 143.831 451.549 142.804 451.793 141.827C452.058 140.855 452.77 140.046 453.931 139.401L461.481 135.2C462.655 134.546 463.718 134.367 464.669 134.661C465.621 134.956 466.4 135.648 467.006 136.739L467.24 137.158C467.847 138.249 468.024 139.276 467.773 140.24C467.522 141.203 466.81 142.012 465.635 142.666L458.085 146.867ZM465.042 140.661C465.475 140.42 465.752 140.046 465.873 139.539C466.016 139.039 465.947 138.537 465.667 138.034L465.434 137.614C465.153 137.111 464.759 136.781 464.251 136.624C463.764 136.474 463.304 136.519 462.871 136.76L457.188 139.923L465.042 140.661ZM454.524 141.405C454.091 141.646 453.803 142.017 453.66 142.518C453.539 143.024 453.619 143.529 453.899 144.033L454.132 144.452C454.413 144.955 454.796 145.282 455.282 145.433C455.791 145.589 456.261 145.547 456.695 145.306L462.357 142.155L454.524 141.405Z" fill="white"/>
<path d="M471.175 166.008L469.523 166.722L466.43 159.561L468.083 158.847L471.175 166.008Z" fill="white"/>
<path d="M486.642 177.365L465.746 184.497L465.126 182.679L486.022 175.548L486.642 177.365Z" fill="white"/>
<path d="M491.413 195.231L470.037 200.763L469.556 198.905L490.932 193.372L491.413 195.231Z" fill="white"/>
<path d="M494.866 213.66L473.131 217.548L472.793 215.658L494.528 211.77L494.866 213.66Z" fill="white"/>
<path d="M486.238 236.579L484.447 236.759L483.667 228.999L485.458 228.818L486.238 236.579Z" fill="white"/>
<g filter="url(#filter0_dd_8_38301)">
<path d="M151.512 261.367V233.57L147 233.747V230.085L160.386 229.559V233.221L155.874 233.399V261.195L160.386 261.018V264.681L147 265.207V261.544L151.512 261.367Z" fill="white"/>
<path d="M179.289 263.938V258.921L184.303 258.724V263.741L181.194 270.888L177.284 271.041L179.289 263.938Z" fill="white"/>
<path d="M244.369 253.453C244.369 256.33 243.701 258.397 242.364 259.654C241.06 260.909 238.888 261.596 235.846 261.716L225.518 262.122V227L235.244 226.618C238.252 226.499 240.525 227.029 242.063 228.206C243.6 229.35 244.369 231.31 244.369 234.086V253.453ZM240.007 233.806C240.007 232.702 239.673 231.846 239.005 231.236C238.336 230.594 237.45 230.294 236.347 230.337L229.88 230.591V258.187L236.297 257.935C237.567 257.885 238.503 257.564 239.105 256.972C239.706 256.346 240.007 255.398 240.007 254.127V233.806Z" fill="white"/>
<path d="M270.391 225.237V228.899L258.008 229.386V240.876L269.138 240.439V244.101L258.008 244.539V257.182L270.391 256.696V260.359L253.646 261.017V225.895L270.391 225.237Z" fill="white"/>
<path d="M289.294 259.616C286.386 259.73 284.147 259.116 282.576 257.773C281.039 256.395 280.27 254.284 280.27 251.441V233.378C280.27 230.535 281.039 228.381 282.576 226.915C284.147 225.415 286.386 224.608 289.294 224.494L296.363 224.216V228.029L288.793 228.327C287.556 228.375 286.554 228.783 285.785 229.549C285.016 230.315 284.632 231.217 284.632 232.253V252.223C284.632 253.26 285.016 254.131 285.785 254.837C286.554 255.542 287.556 255.871 288.793 255.822L293.706 255.629V244.742L289.344 244.913V241.15L297.868 240.815V259.279L289.294 259.616Z" fill="white"/>
<path d="M324.542 223.109V226.772L312.158 227.258V238.748L323.288 238.311V241.974L312.158 242.411V255.055L324.542 254.568V258.231L307.796 258.889V223.767L324.542 223.109Z" fill="white"/>
<path d="M337.729 257.713L333.668 257.872V222.751L340.787 222.471L348.709 253.569V222.16L352.77 222V257.122L345.6 257.404L337.729 226.304V257.713Z" fill="white"/>
</g>
</g>
<defs>
<filter id="filter0_dd_8_38301" x="143" y="218" width="209.77" height="53.0412" filterUnits="userSpaceOnUse" color-interpolation-filters="sRGB">
<feFlood flood-opacity="0" result="BackgroundImageFix"/>
<feColorMatrix in="SourceAlpha" type="matrix" values="0 0 0 0 0 0 0 0 0 0 0 0 0 0 0 0 0 0 127 0" result="hardAlpha"/>
<feOffset dx="-4" dy="-4"/>
<feComposite in2="hardAlpha" operator="out"/>
<feColorMatrix type="matrix" values="0 0 0 0 1 0 0 0 0 1 0 0 0 0 1 0 0 0 1 0"/>
<feBlend mode="normal" in2="BackgroundImageFix" result="effect1_dropShadow_8_38301"/>
<feColorMatrix in="SourceAlpha" type="matrix" values="0 0 0 0 0 0 0 0 0 0 0 0 0 0 0 0 0 0 127 0" result="hardAlpha"/>
<feOffset dx="-3" dy="-3"/>
<feComposite in2="hardAlpha" operator="out"/>
<feColorMatrix type="matrix" values="0 0 0 0 0 0 0 0 0 0 0 0 0 0 0 0 0 0 1 0"/>
<feBlend mode="normal" in2="effect1_dropShadow_8_38301" result="effect2_dropShadow_8_38301"/>
<feBlend mode="normal" in="SourceGraphic" in2="effect2_dropShadow_8_38301" result="shape"/>
</filter>
<clipPath id="clip0_8_38301">
<rect width="500" height="500" fill="white"/>
</clipPath>
</defs>
</svg>
