<svg width="2286" height="834" viewBox="0 0 2286 834" fill="none" xmlns="http://www.w3.org/2000/svg">
<g filter="url(#filter0_dd_8_38133)">
<path d="M205.958 552.784V288.152L163 289.84V254.969L290.441 249.962V284.832L247.483 286.52V551.153L290.441 549.465V584.335L163 589.342V554.472L205.958 552.784Z" fill="black"/>
<path d="M470.405 577.264V529.497L518.135 527.621V575.389L488.542 643.426L451.312 644.889L470.405 577.264Z" fill="black"/>
<path d="M1089.99 477.448C1089.99 504.835 1083.62 524.51 1070.89 536.475C1058.48 548.427 1037.8 554.971 1008.84 556.109L910.519 559.972V225.599L1003.12 221.961C1031.76 220.836 1053.39 225.877 1068.03 237.085C1082.67 247.974 1089.99 266.634 1089.99 293.065V477.448ZM1048.46 290.398C1048.46 279.889 1045.28 271.734 1038.91 265.934C1032.55 259.815 1024.12 256.962 1013.62 257.374L952.045 259.793V522.515L1013.14 520.115C1025.23 519.639 1034.14 516.583 1039.87 510.944C1045.6 504.987 1048.46 495.958 1048.46 483.856V290.398Z" fill="black"/>
<path d="M1337.73 208.814V243.684L1219.83 248.317V357.704L1325.8 353.541V388.411L1219.83 392.575V512.949L1337.73 508.317V543.187L1178.31 549.451V215.078L1337.73 208.814Z" fill="black"/>
<path d="M1517.69 536.116C1490.01 537.204 1468.69 531.354 1453.73 518.567C1439.09 505.449 1431.78 485.355 1431.78 458.287V286.324C1431.78 259.256 1439.09 238.746 1453.73 224.796C1468.69 210.515 1490.01 202.831 1517.69 201.743L1584.99 199.099V235.402L1512.92 238.234C1501.14 238.697 1491.6 242.575 1484.28 249.868C1476.96 257.162 1473.3 265.744 1473.3 275.616V465.731C1473.3 475.603 1476.96 483.899 1484.28 490.617C1491.6 497.335 1501.14 500.463 1512.92 500.001L1559.69 498.163V394.507L1518.17 396.139V360.313L1599.31 357.125V532.909L1517.69 536.116Z" fill="black"/>
<path d="M1853.26 188.559V223.429L1735.36 228.061V337.449L1841.32 333.286V368.156L1735.36 372.319V492.694L1853.26 488.062V522.932L1693.84 529.196V194.823L1853.26 188.559Z" fill="black"/>
<path d="M1978.81 517.999L1940.15 519.518V185.145L2007.92 182.482L2083.34 478.544V179.519L2122 178V512.373L2053.75 515.055L1978.81 218.974V517.999Z" fill="black"/>
</g>
<defs>
<filter id="filter0_dd_8_38133" x="148" y="163" width="1974" height="481.889" filterUnits="userSpaceOnUse" color-interpolation-filters="sRGB">
<feFlood flood-opacity="0" result="BackgroundImageFix"/>
<feColorMatrix in="SourceAlpha" type="matrix" values="0 0 0 0 0 0 0 0 0 0 0 0 0 0 0 0 0 0 127 0" result="hardAlpha"/>
<feOffset dx="-15" dy="-15"/>
<feComposite in2="hardAlpha" operator="out"/>
<feColorMatrix type="matrix" values="0 0 0 0 0 0 0 0 0 0 0 0 0 0 0 0 0 0 1 0"/>
<feBlend mode="normal" in2="BackgroundImageFix" result="effect1_dropShadow_8_38133"/>
<feColorMatrix in="SourceAlpha" type="matrix" values="0 0 0 0 0 0 0 0 0 0 0 0 0 0 0 0 0 0 127 0" result="hardAlpha"/>
<feOffset dx="-10" dy="-10"/>
<feComposite in2="hardAlpha" operator="out"/>
<feColorMatrix type="matrix" values="0 0 0 0 1 0 0 0 0 1 0 0 0 0 1 0 0 0 1 0"/>
<feBlend mode="normal" in2="effect1_dropShadow_8_38133" result="effect2_dropShadow_8_38133"/>
<feBlend mode="normal" in="SourceGraphic" in2="effect2_dropShadow_8_38133" result="shape"/>
</filter>
</defs>
</svg>
