<svg width="2286" height="834" viewBox="0 0 2286 834" fill="none" xmlns="http://www.w3.org/2000/svg">
<g filter="url(#filter0_dd_8_38132)">
<path d="M206.958 552.784V288.152L164 289.84V254.969L291.441 249.962V284.832L248.483 286.52V551.153L291.441 549.465V584.335L164 589.342V554.472L206.958 552.784Z" fill="white"/>
<path d="M471.405 577.264V529.497L519.135 527.621V575.389L489.542 643.426L452.312 644.889L471.405 577.264Z" fill="white"/>
<path d="M1090.99 477.448C1090.99 504.835 1084.62 524.51 1071.89 536.475C1059.48 548.427 1038.8 554.971 1009.84 556.109L911.519 559.972V225.599L1004.12 221.961C1032.76 220.836 1054.39 225.877 1069.03 237.085C1083.67 247.974 1090.99 266.634 1090.99 293.065V477.448ZM1049.46 290.398C1049.46 279.889 1046.28 271.734 1039.91 265.934C1033.55 259.815 1025.12 256.962 1014.62 257.374L953.045 259.793V522.515L1014.14 520.115C1026.23 519.639 1035.14 516.583 1040.87 510.944C1046.6 504.987 1049.46 495.958 1049.46 483.856V290.398Z" fill="white"/>
<path d="M1338.73 208.814V243.684L1220.83 248.317V357.704L1326.8 353.541V388.411L1220.83 392.575V512.949L1338.73 508.317V543.187L1179.31 549.451V215.078L1338.73 208.814Z" fill="white"/>
<path d="M1518.69 536.116C1491.01 537.204 1469.69 531.354 1454.73 518.567C1440.09 505.449 1432.78 485.355 1432.78 458.287V286.324C1432.78 259.256 1440.09 238.746 1454.73 224.796C1469.69 210.515 1491.01 202.831 1518.69 201.743L1585.99 199.099V235.402L1513.92 238.234C1502.14 238.697 1492.6 242.575 1485.28 249.868C1477.96 257.162 1474.3 265.744 1474.3 275.616V465.731C1474.3 475.603 1477.96 483.899 1485.28 490.617C1492.6 497.335 1502.14 500.463 1513.92 500.001L1560.69 498.163V394.507L1519.17 396.139V360.313L1600.31 357.125V532.91L1518.69 536.116Z" fill="white"/>
<path d="M1854.26 188.559V223.429L1736.36 228.061V337.449L1842.32 333.286V368.156L1736.36 372.319V492.694L1854.26 488.062V522.932L1694.84 529.196V194.823L1854.26 188.559Z" fill="white"/>
<path d="M1979.81 517.999L1941.15 519.518V185.145L2008.92 182.482L2084.34 478.544V179.519L2123 178V512.373L2054.75 515.055L1979.81 218.974V517.999Z" fill="white"/>
</g>
<defs>
<filter id="filter0_dd_8_38132" x="149" y="163" width="1974" height="481.889" filterUnits="userSpaceOnUse" color-interpolation-filters="sRGB">
<feFlood flood-opacity="0" result="BackgroundImageFix"/>
<feColorMatrix in="SourceAlpha" type="matrix" values="0 0 0 0 0 0 0 0 0 0 0 0 0 0 0 0 0 0 127 0" result="hardAlpha"/>
<feOffset dx="-15" dy="-15"/>
<feComposite in2="hardAlpha" operator="out"/>
<feColorMatrix type="matrix" values="0 0 0 0 1 0 0 0 0 1 0 0 0 0 1 0 0 0 1 0"/>
<feBlend mode="normal" in2="BackgroundImageFix" result="effect1_dropShadow_8_38132"/>
<feColorMatrix in="SourceAlpha" type="matrix" values="0 0 0 0 0 0 0 0 0 0 0 0 0 0 0 0 0 0 127 0" result="hardAlpha"/>
<feOffset dx="-10" dy="-10"/>
<feComposite in2="hardAlpha" operator="out"/>
<feColorMatrix type="matrix" values="0 0 0 0 0 0 0 0 0 0 0 0 0 0 0 0 0 0 1 0"/>
<feBlend mode="normal" in2="effect1_dropShadow_8_38132" result="effect2_dropShadow_8_38132"/>
<feBlend mode="normal" in="SourceGraphic" in2="effect2_dropShadow_8_38132" result="shape"/>
</filter>
</defs>
</svg>
